<?xml version="1.0" encoding="UTF-8"?>
<svg id="Calque_1" data-name="Calque 1" xmlns="http://www.w3.org/2000/svg" xmlns:xlink="http://www.w3.org/1999/xlink" viewBox="0 0 2000 2000">
  <defs>
    <style>
      .cls-1 {
        fill: url(#Dégradé_sans_nom_1176);
      }

      .cls-2 {
        fill: none;
        stroke: #fff;
        stroke-width: 3px;
      }

      .cls-2, .cls-3 {
        font-family: HyperViperExpanded, 'Hyper Viper Expanded';
        font-size: 383.89px;
      }

      .cls-4 {
        fill: url(#Dégradé_sans_nom_522);
      }
    </style>
    <linearGradient id="Dégradé_sans_nom_522" data-name="Dégradé sans nom 522" x1="1001.35" y1="885.23" x2="1001.35" y2="1139.72" gradientUnits="userSpaceOnUse">
      <stop offset="0" stop-color="#001e4c"/>
      <stop offset=".2" stop-color="#fff"/>
      <stop offset=".4" stop-color="#001e4c"/>
      <stop offset=".6" stop-color="#fff"/>
      <stop offset=".8" stop-color="#001e4c"/>
      <stop offset="1" stop-color="#001e2c"/>
    </linearGradient>
    <linearGradient id="Dégradé_sans_nom_1176" data-name="Dégradé sans nom 1176" x1="1001.35" y1="899.23" x2="1001.35" y2="1125.72" gradientUnits="userSpaceOnUse">
      <stop offset="0" stop-color="#000"/>
      <stop offset=".26" stop-color="#2858bb"/>
      <stop offset=".45" stop-color="#bed2ff"/>
      <stop offset=".64" stop-color="#1d1d1b"/>
      <stop offset=".82" stop-color="#c2006d"/>
      <stop offset="1" stop-color="#fff"/>
    </linearGradient>
  </defs>
  <text class="cls-3" transform="translate(13.31 1125.72) scale(.78 1)"><tspan x="0" y="0">okarina</tspan></text>
  <g>
    <path class="cls-4" d="M62.51,1139.72l-10.62-4.88-39.9-46.45-3.38-9.12v-133.59l3.38-9.12,39.9-46.45,10.62-4.88h226.2l10.62,4.88,39.9,46.45,3.38,9.12v133.59l-3.38,9.12-39.9,46.45-10.62,4.88H62.51ZM229.83,1044.54l10.08-12.45v-39.23l-10.08-12.45h-108.51l-10.31,12.52v39.1l10.31,12.52h108.51Z"/>
    <polygon class="cls-4" points="553.9 1139.72 542.87 1134.34 506.14 1087.34 466.54 1134.7 455.8 1139.72 365.5 1139.72 355.47 1135.49 337.17 1116.68 333.2 1106.91 333.2 899.23 347.2 885.23 403.3 885.23 413.34 889.47 431.64 908.28 435.6 918.04 435.6 1009.76 534.73 890.29 545.5 885.23 626.2 885.23 638.43 892.4 645.93 905.84 644.44 921.65 574.43 1005.31 644.64 1099.71 647.38 1107.29 647.68 1112.66 646.04 1120.07 639.44 1132.35 627.1 1139.72 553.9 1139.72"/>
    <path class="cls-4" d="M875.2,1139.72l-9.69-3.9-6-5.76-2.91-4.01-19.89-41.19v22.05l-3.97,9.76-18.3,18.81-10.03,4.24h-151.2l-12.46-7.61-6.3-12.28-1.54-6.39v-5.38l1.37-6.04,99.9-208.84,12.63-7.96h100.8l12.65,8,99,208.84,1.35,6v5.38l-1.54,6.39-6.3,12.28-12.46,7.61h-65.1ZM818.53,1047.23l-21.74-45.01-22.11,45.01h43.85Z"/>
    <path class="cls-4" d="M1201.6,1139.72l-9.96-4.16-18.6-18.81-4.04-9.84v-18.5l-.65-.9h-115.85l-1.6-1.6v21l-3.97,9.76-18.3,18.81-10.03,4.24h-56.1l-14-14v-207.69l3.97-9.76,18.3-18.81,10.03-4.24h237l10.62,4.88,39.9,46.45,3.38,9.12v69.48l-2.71,8.27-11.94,16.3,11.94,16.29,2.71,8.27v61.42l-14,14h-56.1ZM1050.9,1006.71l9.86-10.14,10.04-4.24h88.43l5.48-6.28-4.58-5.64h-109.23v26.3Z"/>
    <polygon class="cls-4" points="1276.3 1139.72 1262.3 1125.72 1262.3 918.04 1266.26 908.28 1284.56 889.47 1294.6 885.23 1350.7 885.23 1364.7 899.23 1364.7 1106.91 1360.73 1116.68 1342.43 1135.49 1332.4 1139.72 1276.3 1139.72"/>
    <polygon class="cls-4" points="1561 1139.72 1549.94 1134.32 1457.7 1015.67 1457.7 1106.91 1453.73 1116.68 1435.43 1135.49 1425.4 1139.72 1369.3 1139.72 1355.3 1125.72 1355.3 918.04 1359.26 908.28 1377.56 889.47 1387.6 885.23 1480 885.23 1491.04 890.62 1575.8 999.38 1575.8 918.04 1579.84 908.19 1598.44 889.38 1608.4 885.23 1664.5 885.23 1678.5 899.23 1678.5 1106.53 1674.32 1116.51 1654.82 1135.7 1645 1139.72 1561 1139.72"/>
    <path class="cls-4" d="M1908.69,1139.72l-9.69-3.9-6-5.76-2.91-4.01-19.89-41.19v22.05l-3.97,9.76-18.3,18.81-10.03,4.24h-151.2l-12.46-7.61-6.3-12.28-1.54-6.39v-5.38l1.37-6.04,99.9-208.84,12.63-7.96h100.8l12.65,8,99,208.84,1.35,6v5.38l-1.54,6.39-6.3,12.28-12.46,7.61h-65.1ZM1852.02,1047.23l-21.74-45.01-22.11,45.01h43.85Z"/>
  </g>
  <text class="cls-2" transform="translate(13.31 1125.72) scale(.78 1)"><tspan x="0" y="0">okarina</tspan></text>
  <g>
    <path class="cls-1" d="M328.61,945.68v133.59l-39.9,46.45H62.51l-39.9-46.45v-133.59l39.9-46.45h226.2l39.9,46.45ZM97.01,987.91v49.14l17.7,21.5h121.8l17.4-21.5v-49.14l-17.4-21.5h-121.8l-17.7,21.5Z"/>
    <path class="cls-1" d="M455.8,1125.72h-90.3l-18.3-18.81v-207.69h56.1l18.3,18.81v130.52l123.9-149.33h80.7l7.5,13.44-77.1,92.13,76.8,103.27.3,5.38-6.6,12.28h-73.2l-47.4-60.66-50.7,60.66Z"/>
    <path class="cls-1" d="M653.2,1125.72l-6.3-12.28v-5.38l99.9-208.84h100.8l99,208.84v5.38l-6.3,12.28h-65.1l-6-5.76-72.3-149.72-44.7,90.98h70.5v45.68l-18.3,18.81h-151.2Z"/>
    <path class="cls-1" d="M1018.6,1125.72h-56.1v-207.69l18.3-18.81h237l39.9,46.45v69.48l-18,24.57,18,24.57v61.42h-56.1l-18.6-18.81v-23.03l-7.5-10.37h-123v-48.37l18.3-18.81h94.8l17.4-19.96-16.2-19.96h-129.9v140.5l-18.3,18.81Z"/>
    <path class="cls-1" d="M1350.7,1106.91l-18.3,18.81h-56.1v-207.69l18.3-18.81h56.1v207.69Z"/>
    <path class="cls-1" d="M1664.5,1106.53l-19.5,19.19h-84l-117.3-150.87v132.06l-18.3,18.81h-56.1v-207.69l18.3-18.81h92.4l109.8,140.89v-122.08l18.6-18.81h56.1v207.3Z"/>
    <path class="cls-1" d="M1686.69,1125.72l-6.3-12.28v-5.38l99.9-208.84h100.8l99,208.84v5.38l-6.3,12.28h-65.1l-6-5.76-72.3-149.72-44.7,90.98h70.5v45.68l-18.3,18.81h-151.2Z"/>
  </g>
</svg>