<?xml version="1.0" encoding="UTF-8"?>
<svg id="Calque_1" data-name="Calque 1" xmlns="http://www.w3.org/2000/svg" xmlns:xlink="http://www.w3.org/1999/xlink" viewBox="0 0 2000 2000">
  <defs>
    <style>
      .cls-1 {
        font-family: Orbitron-Regular, Orbitron;
        font-size: 48px;
        font-variation-settings: 'wght' 400;
      }

      .cls-2 {
        fill: none;
        stroke: #fff;
        stroke-width: 3px;
      }

      .cls-2, .cls-3 {
        font-family: HyperViperExpanded, 'Hyper Viper Expanded';
        font-size: 383.89px;
      }

      .cls-4 {
        letter-spacing: -.01em;
      }

      .cls-5 {
        letter-spacing: -.03em;
      }

      .cls-6 {
        fill: url(#Dégradé_sans_nom_987);
      }

      .cls-7 {
        fill: url(#Dégradé_sans_nom_522);
      }
    </style>
    <linearGradient id="Dégradé_sans_nom_522" data-name="Dégradé sans nom 522" x1="1001.35" y1="889.23" x2="1001.35" y2="1135.72" gradientUnits="userSpaceOnUse">
      <stop offset="0" stop-color="#001e4c"/>
      <stop offset=".2" stop-color="#fff"/>
      <stop offset=".4" stop-color="#001e4c"/>
      <stop offset=".6" stop-color="#fff"/>
      <stop offset=".8" stop-color="#001e4c"/>
      <stop offset="1" stop-color="#001e2c"/>
    </linearGradient>
    <linearGradient id="Dégradé_sans_nom_987" data-name="Dégradé sans nom 987" x1="1001.35" y1="899.23" x2="1001.35" y2="1125.72" gradientUnits="userSpaceOnUse">
      <stop offset="0" stop-color="#000"/>
      <stop offset=".25" stop-color="#2858bb"/>
      <stop offset=".42" stop-color="#fff"/>
      <stop offset=".5" stop-color="#fff"/>
      <stop offset=".5" stop-color="#1d1d1b"/>
      <stop offset=".75" stop-color="#c2006d"/>
      <stop offset="1" stop-color="#fff"/>
    </linearGradient>
  </defs>
  <text class="cls-1" transform="translate(60.62 -119.48) scale(.99 1)"><tspan x="0" y="0">Bien</tspan><tspan class="cls-5" x="116.54" y="0">v</tspan><tspan x="153.02" y="0">en</tspan><tspan class="cls-4" x="219.65" y="0">u</tspan><tspan x="252.28" y="0">e</tspan></text>
  <g>
    <text class="cls-3" transform="translate(13.31 1125.72) scale(.78 1)"><tspan x="0" y="0">okarina</tspan></text>
    <g>
      <path class="cls-7" d="M62.51,1135.72l-7.59-3.48-39.9-46.45-2.41-6.52v-133.59l2.41-6.52,39.9-46.45,7.59-3.48h226.2l7.59,3.48,39.9,46.45,2.41,6.52v133.59l-2.41,6.52-39.9,46.45-7.59,3.48H62.51ZM231.74,1048.54l12.17-15.04v-42.06l-12.17-15.04h-112.31l-12.42,15.08v41.96l12.42,15.08h112.31Z"/>
      <polygon class="cls-7" points="553.9 1135.72 546.02 1131.88 506.24 1080.97 463.48 1132.14 455.8 1135.72 365.5 1135.72 358.33 1132.7 340.03 1113.89 337.2 1106.91 337.2 899.23 347.2 889.23 403.3 889.23 410.47 892.25 428.77 911.07 431.6 918.04 431.6 1020.85 537.81 892.84 545.5 889.23 626.2 889.23 634.93 894.35 642.43 907.79 641.37 919.08 569.34 1005.16 641.43 1102.1 643.39 1107.51 643.69 1112.88 642.51 1118.17 635.91 1130.46 627.1 1135.72 553.9 1135.72"/>
      <path class="cls-7" d="M875.2,1135.72l-6.92-2.79-6-5.76-2.08-2.87-27.5-56.94v39.54l-2.83,6.97-18.3,18.81-7.17,3.03h-151.2l-8.9-5.44-6.3-12.28-1.1-4.56v-5.38l.98-4.32,99.9-208.84,9.02-5.68h100.8l9.04,5.72,99,208.84.96,4.28v5.38l-1.1,4.56-6.3,12.28-8.9,5.44h-65.1ZM822.7,1051.23l4.26,4.26-30.14-62.41-28.57,58.15h54.45Z"/>
      <path class="cls-7" d="M1201.6,1135.72l-7.11-2.97-18.6-18.81-2.89-7.03v-19.79l-2.61-3.6h-117.89l-5.6-5.6v29l-2.83,6.97-18.3,18.81-7.17,3.03h-56.1l-10-10v-207.69l2.83-6.97,18.3-18.81,7.17-3.03h237l7.59,3.48,39.9,46.45,2.41,6.52v69.48l-1.93,5.91-13.67,18.66,13.67,18.66,1.93,5.91v61.42l-10,10h-56.1ZM1046.9,1016.56l16.73-17.2,7.17-3.03h90.25l8.88-10.19-7.9-9.73h-115.14v40.15Z"/>
      <polygon class="cls-7" points="1276.3 1135.72 1266.3 1125.72 1266.3 918.04 1269.13 911.07 1287.43 892.26 1294.6 889.23 1350.7 889.23 1360.7 899.23 1360.7 1106.91 1357.87 1113.89 1339.57 1132.7 1332.4 1135.72 1276.3 1135.72"/>
      <polygon class="cls-7" points="1561 1135.72 1553.1 1131.86 1453.7 1004.01 1453.7 1106.91 1450.86 1113.89 1432.57 1132.7 1425.4 1135.72 1369.3 1135.72 1359.3 1125.72 1359.3 918.04 1362.13 911.07 1380.43 892.26 1387.6 889.23 1480 889.23 1487.88 893.08 1579.8 1011.02 1579.8 918.04 1582.69 911.01 1601.29 892.2 1608.4 889.23 1664.5 889.23 1674.5 899.23 1674.5 1106.53 1671.51 1113.66 1652.01 1132.85 1645 1135.72 1561 1135.72"/>
      <path class="cls-7" d="M1908.69,1135.72l-6.92-2.79-6-5.76-2.08-2.87-27.5-56.94v39.54l-2.83,6.97-18.3,18.81-7.17,3.03h-151.2l-8.9-5.44-6.3-12.28-1.1-4.56v-5.38l.98-4.32,99.9-208.84,9.02-5.68h100.8l9.04,5.72,99,208.84.96,4.28v5.38l-1.1,4.56-6.3,12.28-8.9,5.44h-65.1ZM1856.19,1051.23l4.26,4.26-30.14-62.4-28.57,58.15h54.45Z"/>
    </g>
    <text class="cls-2" transform="translate(13.31 1125.72) scale(.78 1)"><tspan x="0" y="0">okarina</tspan></text>
    <g>
      <path class="cls-6" d="M328.61,945.68v133.59l-39.9,46.45H62.51l-39.9-46.45v-133.59l39.9-46.45h226.2l39.9,46.45ZM97.01,987.91v49.14l17.7,21.5h121.8l17.4-21.5v-49.14l-17.4-21.5h-121.8l-17.7,21.5Z"/>
      <path class="cls-6" d="M455.8,1125.72h-90.3l-18.3-18.81v-207.69h56.1l18.3,18.81v130.52l123.9-149.33h80.7l7.5,13.44-77.1,92.13,76.8,103.27.3,5.38-6.6,12.28h-73.2l-47.4-60.66-50.7,60.66Z"/>
      <path class="cls-6" d="M653.2,1125.72l-6.3-12.28v-5.38l99.9-208.84h100.8l99,208.84v5.38l-6.3,12.28h-65.1l-6-5.76-72.3-149.72-44.7,90.98h70.5v45.68l-18.3,18.81h-151.2Z"/>
      <path class="cls-6" d="M1018.6,1125.72h-56.1v-207.69l18.3-18.81h237l39.9,46.45v69.48l-18,24.57,18,24.57v61.42h-56.1l-18.6-18.81v-23.03l-7.5-10.37h-123v-48.37l18.3-18.81h94.8l17.4-19.96-16.2-19.96h-129.9v140.5l-18.3,18.81Z"/>
      <path class="cls-6" d="M1350.7,1106.91l-18.3,18.81h-56.1v-207.69l18.3-18.81h56.1v207.69Z"/>
      <path class="cls-6" d="M1664.5,1106.53l-19.5,19.19h-84l-117.3-150.87v132.06l-18.3,18.81h-56.1v-207.69l18.3-18.81h92.4l109.8,140.89v-122.08l18.6-18.81h56.1v207.3Z"/>
      <path class="cls-6" d="M1686.69,1125.72l-6.3-12.28v-5.38l99.9-208.84h100.8l99,208.84v5.38l-6.3,12.28h-65.1l-6-5.76-72.3-149.72-44.7,90.98h70.5v45.68l-18.3,18.81h-151.2Z"/>
    </g>
  </g>
</svg>